<?xml version="1.0" encoding="UTF-8" standalone="no"?>
<!-- Created with Inkscape (http://www.inkscape.org/) -->

<svg
   width="50.799999mm"
   height="50.799999mm"
   viewBox="0 0 50.799999 50.799999"
   version="1.1"
   id="svg5"
   inkscape:version="1.2 (dc2aedaf03, 2022-05-15)"
   sodipodi:docname="50.8mm_sensor_copper.svg"
   xmlns:inkscape="http://www.inkscape.org/namespaces/inkscape"
   xmlns:sodipodi="http://sodipodi.sourceforge.net/DTD/sodipodi-0.dtd"
   xmlns="http://www.w3.org/2000/svg"
   xmlns:svg="http://www.w3.org/2000/svg">
  <sodipodi:namedview
     id="namedview7"
     pagecolor="#505050"
     bordercolor="#ffffff"
     borderopacity="1"
     inkscape:showpageshadow="0"
     inkscape:pageopacity="0"
     inkscape:pagecheckerboard="1"
     inkscape:deskcolor="#505050"
     inkscape:document-units="mm"
     showgrid="false"
     inkscape:zoom="2.7010662"
     inkscape:cx="94.592276"
     inkscape:cy="128.46779"
     inkscape:window-width="1920"
     inkscape:window-height="1039"
     inkscape:window-x="0"
     inkscape:window-y="41"
     inkscape:window-maximized="1"
     inkscape:current-layer="layer1" />
  <defs
     id="defs2" />
  <g
     inkscape:label="Layer 1"
     inkscape:groupmode="layer"
     id="layer1">
    <rect
       style="fill:#ffffff;stroke-width:0.337449;fill-opacity:1"
       id="rect2917"
       width="50.799999"
       height="50.799999"
       x="0"
       y="0" />
    <rect
       style="fill:#020202;fill-opacity:1;stroke-width:0.0687345"
       id="rect3129"
       width="48.506023"
       height="0.5"
       x="0.64999998"
       y="0.5" />
    <path
       id="rect3287"
       style="fill:#020202;fill-opacity:1;stroke-width:0.0687345"
       d="M 0.65008952 0.50022786 L 0.65008952 0.99993896 L 0.65008952 2.5001058 L 0.65008952 2.9998169 L 0.65008952 4.4999837 L 0.65008952 5.0002116 L 0.65008952 6.4998617 L 0.65008952 7.0000895 L 0.65008952 8.5002563 L 0.65008952 8.9999674 L 0.65008952 10.500134 L 0.65008952 10.999845 L 0.65008952 12.500012 L 0.65008952 13.00024 L 0.65008952 14.49989 L 0.65008952 15.000118 L 0.65008952 16.499768 L 0.65008952 16.999996 L 0.65008952 18.500163 L 0.65008952 18.999874 L 0.65008952 20.500041 L 0.65008952 20.999752 L 0.65008952 22.499919 L 0.65008952 23.000146 L 0.65008952 24.499797 L 0.65008952 25.000024 L 0.65008952 26.500191 L 0.65008952 26.999902 L 0.65008952 28.500069 L 0.65008952 28.99978 L 0.65008952 30.499947 L 0.65008952 31.000175 L 0.65008952 32.499825 L 0.65008952 33.000053 L 0.65008952 34.50022 L 0.65008952 34.999931 L 0.65008952 36.500098 L 0.65008952 36.999809 L 0.65008952 38.499976 L 0.65008952 39.000203 L 0.65008952 40.499854 L 0.65008952 41.000081 L 0.65008952 42.500248 L 0.65008952 42.999959 L 0.65008952 44.500126 L 0.65008952 44.999837 L 0.65008952 46.500004 L 0.65008952 47.000232 L 0.65008952 48.499882 L 0.65008952 49.00011 L 1.1498006 49.00011 L 49.156173 49.00011 L 49.156173 48.499882 L 1.1498006 48.499882 L 1.1498006 47.000232 L 49.156173 47.000232 L 49.156173 46.500004 L 1.1498006 46.500004 L 1.1498006 44.999837 L 49.156173 44.999837 L 49.156173 44.500126 L 1.1498006 44.500126 L 1.1498006 42.999959 L 49.156173 42.999959 L 49.156173 42.500248 L 1.1498006 42.500248 L 1.1498006 41.000081 L 49.156173 41.000081 L 49.156173 40.499854 L 1.1498006 40.499854 L 1.1498006 39.000203 L 49.156173 39.000203 L 49.156173 38.499976 L 1.1498006 38.499976 L 1.1498006 36.999809 L 49.156173 36.999809 L 49.156173 36.500098 L 1.1498006 36.500098 L 1.1498006 34.999931 L 49.156173 34.999931 L 49.156173 34.50022 L 1.1498006 34.50022 L 1.1498006 33.000053 L 49.156173 33.000053 L 49.156173 32.499825 L 1.1498006 32.499825 L 1.1498006 31.000175 L 49.156173 31.000175 L 49.156173 30.499947 L 1.1498006 30.499947 L 1.1498006 28.99978 L 49.156173 28.99978 L 49.156173 28.500069 L 1.1498006 28.500069 L 1.1498006 26.999902 L 49.156173 26.999902 L 49.156173 26.500191 L 1.1498006 26.500191 L 1.1498006 25.000024 L 49.156173 25.000024 L 49.156173 24.499797 L 1.1498006 24.499797 L 1.1498006 23.000146 L 49.156173 23.000146 L 49.156173 22.499919 L 1.1498006 22.499919 L 1.1498006 20.999752 L 49.156173 20.999752 L 49.156173 20.500041 L 1.1498006 20.500041 L 1.1498006 18.999874 L 49.156173 18.999874 L 49.156173 18.500163 L 1.1498006 18.500163 L 1.1498006 16.999996 L 49.156173 16.999996 L 49.156173 16.499768 L 1.1498006 16.499768 L 1.1498006 15.000118 L 49.156173 15.000118 L 49.156173 14.49989 L 1.1498006 14.49989 L 1.1498006 13.00024 L 49.156173 13.00024 L 49.156173 12.500012 L 1.1498006 12.500012 L 1.1498006 10.999845 L 49.156173 10.999845 L 49.156173 10.500134 L 1.1498006 10.500134 L 1.1498006 8.9999674 L 49.156173 8.9999674 L 49.156173 8.5002563 L 1.1498006 8.5002563 L 1.1498006 7.0000895 L 49.156173 7.0000895 L 49.156173 6.4998617 L 1.1498006 6.4998617 L 1.1498006 5.0002116 L 49.156173 5.0002116 L 49.156173 4.4999837 L 1.1498006 4.4999837 L 1.1498006 2.9998169 L 49.156173 2.9998169 L 49.156173 2.5001058 L 1.1498006 2.5001058 L 1.1498006 0.99993896 L 49.156173 0.99993896 L 49.156173 0.50022786 L 0.65008952 0.50022786 z " />
    <path
       id="rect3291"
       style="fill:#020202;fill-opacity:1;stroke-width:0.0687345"
       d="M 1.6438273 1.5001668 L 1.6438273 1.9998779 L 49.650199 1.9998779 L 49.650199 3.5000448 L 1.6438273 3.5000448 L 1.6438273 3.9997559 L 49.650199 3.9997559 L 49.650199 5.4999227 L 1.6438273 5.4999227 L 1.6438273 6.0001506 L 49.650199 6.0001506 L 49.650199 7.4998006 L 1.6438273 7.4998006 L 1.6438273 8.0000285 L 49.650199 8.0000285 L 49.650199 9.5001953 L 1.6438273 9.5001953 L 1.6438273 9.9999064 L 49.650199 9.9999064 L 49.650199 11.500073 L 1.6438273 11.500073 L 1.6438273 11.999784 L 49.650199 11.999784 L 49.650199 13.499951 L 1.6438273 13.499951 L 1.6438273 14.000179 L 49.650199 14.000179 L 49.650199 15.499829 L 1.6438273 15.499829 L 1.6438273 16.000057 L 49.650199 16.000057 L 49.650199 17.500224 L 1.6438273 17.500224 L 1.6438273 17.999935 L 49.650199 17.999935 L 49.650199 19.500102 L 1.6438273 19.500102 L 1.6438273 19.999813 L 49.650199 19.999813 L 49.650199 21.49998 L 1.6438273 21.49998 L 1.6438273 22.000208 L 49.650199 22.000208 L 49.650199 23.499858 L 1.6438273 23.499858 L 1.6438273 24.000085 L 49.650199 24.000085 L 49.650199 25.500252 L 1.6438273 25.500252 L 1.6438273 25.999963 L 49.650199 25.999963 L 49.650199 27.50013 L 1.6438273 27.50013 L 1.6438273 27.999841 L 49.650199 27.999841 L 49.650199 29.500008 L 1.6438273 29.500008 L 1.6438273 30.000236 L 49.650199 30.000236 L 49.650199 31.499886 L 1.6438273 31.499886 L 1.6438273 32.000114 L 49.650199 32.000114 L 49.650199 33.499764 L 1.6438273 33.499764 L 1.6438273 33.999992 L 49.650199 33.999992 L 49.650199 35.500159 L 1.6438273 35.500159 L 1.6438273 35.99987 L 49.650199 35.99987 L 49.650199 37.500037 L 1.6438273 37.500037 L 1.6438273 37.999748 L 49.650199 37.999748 L 49.650199 39.499915 L 1.6438273 39.499915 L 1.6438273 40.000142 L 49.650199 40.000142 L 49.650199 41.499792 L 1.6438273 41.499792 L 1.6438273 42.00002 L 49.650199 42.00002 L 49.650199 43.500187 L 1.6438273 43.500187 L 1.6438273 43.999898 L 49.650199 43.999898 L 49.650199 45.500065 L 1.6438273 45.500065 L 1.6438273 45.999776 L 49.650199 45.999776 L 49.650199 47.499943 L 1.6438273 47.499943 L 1.6438273 48.000171 L 49.650199 48.000171 L 49.650199 49.499821 L 1.6438273 49.499821 L 1.6438273 50.000049 L 49.650199 50.000049 L 50.14991 50.000049 L 50.14991 49.499821 L 50.14991 48.000171 L 50.14991 47.499943 L 50.14991 45.999776 L 50.14991 45.500065 L 50.14991 43.999898 L 50.14991 43.500187 L 50.14991 42.00002 L 50.14991 41.499792 L 50.14991 40.000142 L 50.14991 39.499915 L 50.14991 37.999748 L 50.14991 37.500037 L 50.14991 35.99987 L 50.14991 35.500159 L 50.14991 33.999992 L 50.14991 33.499764 L 50.14991 32.000114 L 50.14991 31.499886 L 50.14991 30.000236 L 50.14991 29.500008 L 50.14991 27.999841 L 50.14991 27.50013 L 50.14991 25.999963 L 50.14991 25.500252 L 50.14991 24.000085 L 50.14991 23.499858 L 50.14991 22.000208 L 50.14991 21.49998 L 50.14991 19.999813 L 50.14991 19.500102 L 50.14991 17.999935 L 50.14991 17.500224 L 50.14991 16.000057 L 50.14991 15.499829 L 50.14991 14.000179 L 50.14991 13.499951 L 50.14991 11.999784 L 50.14991 11.500073 L 50.14991 9.9999064 L 50.14991 9.5001953 L 50.14991 8.0000285 L 50.14991 7.4998006 L 50.14991 6.0001506 L 50.14991 5.4999227 L 50.14991 3.9997559 L 50.14991 3.5000448 L 50.14991 1.9998779 L 50.14991 1.5001668 L 49.650199 1.5001668 L 1.6438273 1.5001668 z " />
    <rect
       style="fill:#020202;fill-opacity:1;stroke-width:0.0687345"
       id="rect3302"
       width="48.506023"
       height="0.5"
       x="0.64999998"
       y="4.5" />
    <rect
       style="fill:#020202;fill-opacity:1;stroke-width:0.0687345"
       id="rect3336"
       width="48.506023"
       height="0.5"
       x="0.64999998"
       y="8.5" />
    <rect
       style="fill:#020202;fill-opacity:1;stroke-width:0.0687345"
       id="rect3346"
       width="48.506023"
       height="0.5"
       x="0.64999998"
       y="12.5" />
    <rect
       style="fill:#020202;fill-opacity:1;stroke-width:0.0687345"
       id="rect3400"
       width="48.506023"
       height="0.5"
       x="0.64999998"
       y="16.5" />
    <rect
       style="fill:#020202;fill-opacity:1;stroke-width:0.0687345"
       id="rect3410"
       width="48.506023"
       height="0.5"
       x="0.64999998"
       y="20.5" />
    <rect
       style="fill:#020202;fill-opacity:1;stroke-width:0.0687345"
       id="rect3420"
       width="48.506023"
       height="0.5"
       x="0.64999998"
       y="24.5" />
    <rect
       style="fill:#020202;fill-opacity:1;stroke-width:0.0687345"
       id="rect3430"
       width="48.506023"
       height="0.5"
       x="0.64999998"
       y="28.5" />
    <rect
       style="fill:#020202;fill-opacity:1;stroke-width:0.0687345"
       id="rect3482"
       width="48.506023"
       height="0.5"
       x="0.64999998"
       y="32.5" />
    <rect
       style="fill:#020202;fill-opacity:1;stroke-width:0.0687345"
       id="rect3492"
       width="48.506023"
       height="0.5"
       x="0.64999998"
       y="36.5" />
    <rect
       style="fill:#020202;fill-opacity:1;stroke-width:0.0687345"
       id="rect3502"
       width="48.506023"
       height="0.5"
       x="0.64999998"
       y="40.5" />
  </g>
</svg>
